@startuml

class InventoryTracker
{
start()
main()
}

class SceneManager {

scenes: Map<String, Scene>

load()
getScene(String): Scene

}

class MainWindowController {
items: ItemModel
scenes: SceneManager
fileManager: FileManager
+ MainWindowController(ItemModel, SceneManager)

addItemButtonClicked(EventHandler)
editItemButtonClicked(EventHandler)
removeItemButtonClicked(EventHandler)

addItem(String, String, BigDecimal)
editItem()
saveInventoryAsCSV(filename: String)
saveInventoryAsHTML(filename: String)
saveInventoryAsJSON(filename: String)

}

class AddItemWindowController {
}

class EditItemWindowController {
}

class RemoveItemWindowController {
}

class SearchItemWindowController {
}

class ItemModel {
- ObservableList<Item>
}

class Item {
- name: String
- serialNumber: SimpleStringProperty
- value: SimpleDoubleProperty

+ getName()
+ setName()
+ nameProperty()
+ getSerialNumber()
'...
}

class FileManager {
saveAsCSV(filename)
saveAsJSON()
saveAsHTML()
}
openjfx.org.Application <|-- InventoryTracker
InventoryTracker -- SceneManager
SceneManager -- MainWindowController
SceneManager -- AddItemWindowController
SceneManager -- EditItemWindowController
SceneManager -- RemoveItemWindowController
SceneManager -- SearchItemWindowController
MainWindowController o-- ItemModel
AddItemWindowController o-- ItemModel
EditItemWindowController o-- ItemModel
RemoveItemWindowController o-- ItemModel
SearchItemWindowController o-- ItemModel
ItemModel *-- Items

MainWindowController o-- FileManager
@enduml